# xmcd
#
# Track frame offsets:
#	150
#	10723
#	23963
#	36040
#	47949
#	61518
#	73760
#	86122
#	96533
#	107996
#	120540
#	131566
#	144049
#	156067
#	169573
#	181319
#	193336
#	207053
#	221707
#	235133
#	245669
#	258740
#	269911
#	281727
#	294083
#	304209
#
# Disc length: 4186 seconds
#
# Revision: 3
# Processed by: cddbd v1.5.2PL0 Copyright (c) Steve Scherf et al.
# Submitted via: EZCDAudioConverter 7.0.6.1
#
DISCID=8810581a
DTITLE=Lightnin' Hopkins - His Blues 1/2
DYEAR=1900
DGENRE=Electric Blues, Country Blues, Texas Blues
TTITLE0=Lightnin's Boogie
TTITLE1=Jake Head Boogie
TTITLE2=Shotgun Blues
TTITLE3=European Blues
TTITLE4=Katie Mae Blues
TTITLE5=Sugar Mama (Sugar On My Mind)
TTITLE6=Howling Wolf Blues
TTITLE7=Miss Me Blues (You're Gonna Miss Me)
TTITLE8=Let Me Play With Your Poodle
TTITLE9=Zolo Go (Zydeco)
TTITLE10=Jazz Blues
TTITLE11=Short-Haired Woman
TTITLE12=Tim Moore's Farm
TTITLE13=One Kind Of Favor
TTITLE14=Tap Dance Boogie
TTITLE15=Coffee Blues
TTITLE16=Policy Game
TTITLE17=Ain't No Monkey Man
TTITLE18=Give Me Central
TTITLE19=My Little Kewpie Doll (Bad Boogie)
TTITLE20=I'm Wild About You Baby
TTITLE21=Moanin' Blues
TTITLE22=Highway Blues
TTITLE23=The Foot Race Is On
TTITLE24=Early Mornin' Boogie (Hear Me Talkin')
TTITLE25=Hopkins' Sky Hop
EXTD=
EXTT0=
EXTT1=
EXTT2=
EXTT3=
EXTT4=
EXTT5=
EXTT6=
EXTT7=
EXTT8=
EXTT9=
EXTT10=
EXTT11=
EXTT12=
EXTT13=
EXTT14=
EXTT15=
EXTT16=
EXTT17=
EXTT18=
EXTT19=
EXTT20=
EXTT21=
EXTT22=
EXTT23=
EXTT24=
EXTT25=
PLAYORDER=
